<svg version="1.1" viewBox="0 0 12 12" xmlns="http://www.w3.org/2000/svg">
  <path d="m4.9955 12c-0.99288-0.0101-1.8642-0.2721-2.6141-0.7859-0.74984-0.5139-1.3342-1.2242-1.7531-2.131-0.41888-0.90679-0.62831-1.9496-0.62831-3.1284 0-1.1688 0.21978-2.199 0.65934-3.0906 0.43956-0.89672 1.042-1.597 1.8074-2.1007 0.77052-0.50881 1.6471-0.76321 2.6296-0.76321 0.69812 0 1.3109 0.12846 1.8384 0.38538 0.52747 0.25189 0.97738 0.60453 1.3497 1.0579 0.37751 0.45339 0.68778 0.97983 0.93084 1.5793h0.80674l0.4576 2.9017 1.5204 5.8336h-1.9858l-1.4273-5.8336c-0.07757-0.37279-0.19392-0.7884-0.34906-1.2468-0.15514-0.45844-0.35941-0.89672-0.6128-1.3148s-0.57401-0.76321-0.96186-1.0352c-0.38268-0.27204-0.84551-0.40806-1.3885-0.40806-0.59469 0-1.117 0.1738-1.5669 0.52141-0.4499 0.34256-0.79896 0.81863-1.0472 1.4282-0.24822 0.60957-0.37233 1.3098-0.37233 2.1007 0 0.77581 0.11894 1.4735 0.35682 2.0932 0.24305 0.61964 0.57918 1.1083 1.0084 1.466 0.42922 0.35265 0.93084 0.52895 1.5048 0.52895 0.5223 0 0.97996-0.13852 1.373-0.4156 0.39302-0.27707 0.72657-0.62971 1.0006-1.0579s0.49644-0.87404 0.66709-1.3375c0.17583-0.46851 0.30511-0.88916 0.38785-1.262l1.2799-5.8337h1.9781l-1.3653 5.8337-0.4576 2.9395h-0.73693c-0.24822 0.59949-0.56885 1.1335-0.96186 1.602-0.38785 0.4635-0.85844 0.8262-1.4118 1.0882-0.54816 0.2619-1.1868 0.3904-1.916 0.3854z"/>
</svg>
