<svg xmlns="http://www.w3.org/2000/svg" xmlns:xlink="http://www.w3.org/1999/xlink"><symbol id="alpha" viewBox="0 0 12 12"><path d="M4.995 12c-.992-.01-1.864-.272-2.614-.786-.75-.514-1.334-1.224-1.753-2.13C.21 8.175 0 7.133 0 5.953c0-1.168.22-2.198.66-3.09.439-.897 1.041-1.597 1.807-2.1C3.237.253 4.114 0 5.097 0c.697 0 1.31.129 1.838.386.527.251.977.604 1.35 1.057.377.454.687.98.93 1.58h.807l.458 2.901L12 11.758h-1.986L8.587 5.924a10.796 10.796 0 00-.35-1.246c-.154-.459-.359-.897-.612-1.315s-.574-.763-.962-1.035c-.382-.272-.845-.408-1.388-.408a2.49 2.49 0 00-1.567.521c-.45.343-.8.819-1.047 1.428-.249.61-.373 1.31-.373 2.1 0 .777.12 1.474.357 2.094.243.62.58 1.108 1.008 1.466.43.353.931.53 1.505.53.523 0 .98-.14 1.373-.417.393-.277.727-.63 1-1.057s.497-.874.668-1.338c.176-.468.305-.89.388-1.262L9.867.151h1.978L10.48 5.985l-.458 2.94h-.737a6.11 6.11 0 01-.962 1.602 4.112 4.112 0 01-1.412 1.088c-.548.262-1.186.39-1.916.385z"/></symbol> <view id="alpha-view" viewBox="0 0 12 12"/> <use xlink:href="#alpha" x="0" y="0" width="12" height="12"/></svg>