<?xml version="1.0" encoding="utf-8"?><svg xmlns="http://www.w3.org/2000/svg" xmlns:xlink="http://www.w3.org/1999/xlink"><symbol viewBox="-102 0 512 512" id="tardis" xmlns="http://www.w3.org/2000/svg"><path d="M290.133 76.8c-.012-9.421-7.645-17.054-17.067-17.066-.011-9.422-7.644-17.054-17.066-17.066h-76.8V25.602C179.2 11.46 167.737 0 153.601 0 139.46 0 128 11.46 128 25.602v17.066H51.2c-9.419.012-17.055 7.644-17.067 17.066-9.418.012-17.055 7.645-17.067 17.067C7.645 76.812.012 84.445 0 93.867v17.067a17.012 17.012 0 008.535 14.691v337.55A17.007 17.007 0 000 477.868v17.067c.012 9.421 7.645 17.054 17.066 17.066h273.067c9.422-.012 17.054-7.645 17.066-17.066v-17.067a17.012 17.012 0 00-8.531-14.691V125.625a17.017 17.017 0 008.531-14.691V93.867c-.012-9.422-7.644-17.055-17.066-17.066zM145.066 25.603a8.534 8.534 0 1117.067 0v17.066h-17.067zM51.2 59.734H256c.012 9.418 7.645 17.055 17.066 17.067H34.133c9.422-.012 17.055-7.649 17.066-17.067zm-34.133 435.2v-17.067h273.067l.02 17.067zm230.399-358.399H59.735c-9.422.012-17.055 7.645-17.067 17.067V460.8H25.602V128h256v332.8h-17.067V153.603c-.015-9.422-7.648-17.055-17.07-17.067zm-68.266 51.2V204.8h-17.066v-17.067zm-17.066-17.067v-17.066H179.2v17.066zm85.332 51.2V460.8h-85.332V221.867zm-34.133-34.134v17.067h-17.066v-17.067zm-17.066-17.066v-17.066h17.066v17.066zm34.132 34.133v-17.067h17.067v17.067zm0-34.133v-17.066h17.067v17.066zM76.801 187.734v17.067H59.734v-17.067zm-17.067-17.066v-17.066h17.067v17.066zm85.332 51.2V460.8H59.734V221.867zm-34.132-34.134v17.067H93.867v-17.067zm-17.067-17.066v-17.066h17.067v17.066zM128 204.801v-17.067h17.066v17.067zm0-34.133v-17.066h17.066v17.066zm162.133-59.734H17.066V93.867h273.067l.02 17.067zm0 0"/><path d="M85.332 298.668h34.133c9.422-.016 17.055-7.648 17.07-17.066v-34.137c-.015-9.418-7.648-17.05-17.07-17.067H85.332c-9.418.016-17.05 7.649-17.066 17.067v34.137c.015 9.418 7.648 17.05 17.066 17.066zm0-51.203h34.133l.02 34.137H85.331zm0 128h34.133c9.422-.012 17.055-7.645 17.07-17.067v-34.132c-.015-9.418-7.648-17.055-17.07-17.067H85.332c-9.418.012-17.05 7.649-17.066 17.067v34.132c.015 9.422 7.648 17.055 17.066 17.067zm0-51.2h34.133l.02 34.133H85.331zm0 128.001h34.133c9.422-.012 17.055-7.645 17.07-17.067v-34.133c-.015-9.421-7.648-17.054-17.07-17.066H85.332c-9.418.012-17.05 7.645-17.066 17.066V435.2c.015 9.422 7.648 17.055 17.066 17.067zm0-51.2h34.133l.02 34.133H85.331zm102.402-102.398h34.133c9.418-.016 17.055-7.648 17.067-17.066v-34.137c-.012-9.418-7.649-17.05-17.067-17.067h-34.133c-9.422.016-17.054 7.649-17.066 17.067v34.137c.012 9.418 7.644 17.05 17.066 17.066zm0-51.203h34.133l.016 34.137h-34.149zm0 128h34.133c9.418-.012 17.055-7.645 17.067-17.067v-34.132c-.012-9.418-7.649-17.055-17.067-17.067h-34.133c-9.422.012-17.054 7.649-17.066 17.067v34.132c.012 9.422 7.644 17.055 17.066 17.067zm0-51.2h34.133l.016 34.133h-34.149zm0 128.001h34.133c9.418-.012 17.055-7.645 17.067-17.067v-34.133c-.012-9.421-7.649-17.054-17.067-17.066h-34.133c-9.422.012-17.054 7.645-17.066 17.066V435.2c.012 9.422 7.644 17.055 17.066 17.067zm0-51.2h34.133l.016 34.133h-34.149zm0 0"/></symbol></svg>