<svg height="512pt" viewBox="-102 0 512 512" width="512pt" xmlns="http://www.w3.org/2000/svg"><path d="m290.132812 76.800781c-.011718-9.421875-7.644531-17.054687-17.066406-17.066406-.011718-9.421875-7.644531-17.054687-17.066406-17.066406h-76.800781v-17.066407c0-14.140624-11.460938-25.601562-25.597657-25.601562-14.140624 0-25.601562 11.460938-25.601562 25.601562v17.066407h-76.800781c-9.417969.011719-17.054688 7.644531-17.066407 17.066406-9.417968.011719-17.054687 7.644531-17.066406 17.066406-9.421875.011719-17.0546872 7.644531-17.066406 17.066407v17.066406c.0195312 6.066406 3.273438 11.667968 8.535156 14.691406v337.550781c-5.261718 3.023438-8.5156248 8.621094-8.535156 14.691407v17.066406c.0117188 9.421875 7.644531 17.054687 17.066406 17.066406h273.066406c9.421876-.011719 17.054688-7.644531 17.066407-17.066406v-17.066406c-.019531-6.070313-3.273438-11.667969-8.53125-14.691407v-337.550781c5.257812-3.023438 8.511719-8.625 8.53125-14.691406v-17.066406c-.011719-9.421876-7.644531-17.054688-17.066407-17.066407zm-145.066406-51.199219c0-4.714843 3.820313-8.535156 8.535156-8.535156 4.710938 0 8.53125 3.820313 8.53125 8.535156v17.066407h-17.066406zm-93.867187 34.132813h204.800781c.011719 9.417969 7.644531 17.054687 17.066406 17.066406h-238.933594c9.421876-.011719 17.054688-7.648437 17.066407-17.066406zm-34.132813 435.199219v-17.066406h273.066406l.019532 17.066406zm230.398438-358.398438h-187.730469c-9.421875.011719-17.054687 7.644532-17.066406 17.066406v307.199219h-17.066407v-332.800781h256v332.800781h-17.066406v-307.199219c-.015625-9.421874-7.648437-17.054687-17.070312-17.066406zm-68.265625 51.199219v17.066406h-17.066407v-17.066406zm-17.066407-17.066406v-17.066407h17.066407v17.066407zm85.332032 51.199219v238.933593h-85.332032v-238.933593zm-34.132813-34.132813v17.066406h-17.066406v-17.066406zm-17.066406-17.066406v-17.066407h17.066406v17.066407zm34.132813 34.132812v-17.066406h17.066406v17.066406zm0-34.132812v-17.066407h17.066406v17.066407zm-153.597657 17.066406v17.066406h-17.066406v-17.066406zm-17.066406-17.066406v-17.066407h17.066406v17.066407zm85.332031 51.199219v238.933593h-85.332031v-238.933593zm-34.132812-34.132813v17.066406h-17.066406v-17.066406zm-17.066406-17.066406v-17.066407h17.066406v17.066407zm34.132812 34.132812v-17.066406h17.066406v17.066406zm0-34.132812v-17.066407h17.066406v17.066407zm162.132812-59.734375h-273.066406v-17.066406h273.066406l.019532 17.066406zm0 0"/><path d="m85.332031 298.667969h34.132813c9.421875-.015625 17.054687-7.648438 17.070312-17.066407v-34.136718c-.015625-9.417969-7.648437-17.050782-17.070312-17.066406h-34.132813c-9.417969.015624-17.050781 7.648437-17.066406 17.066406v34.136718c.015625 9.417969 7.648437 17.050782 17.066406 17.066407zm0-51.203125h34.132813l.019531 34.136718h-34.152344zm0 0"/><path d="m85.332031 375.464844h34.132813c9.421875-.011719 17.054687-7.644532 17.070312-17.066406v-34.132813c-.015625-9.417969-7.648437-17.054687-17.070312-17.066406h-34.132813c-9.417969.011719-17.050781 7.648437-17.066406 17.066406v34.132813c.015625 9.421874 7.648437 17.054687 17.066406 17.066406zm0-51.199219h34.132813l.019531 34.132813h-34.152344zm0 0"/><path d="m85.332031 452.265625h34.132813c9.421875-.011719 17.054687-7.644531 17.070312-17.066406v-34.132813c-.015625-9.421875-7.648437-17.054687-17.070312-17.066406h-34.132813c-9.417969.011719-17.050781 7.644531-17.066406 17.066406v34.132813c.015625 9.421875 7.648437 17.054687 17.066406 17.066406zm0-51.199219h34.132813l.019531 34.132813h-34.152344zm0 0"/><path d="m187.734375 298.667969h34.132813c9.417968-.015625 17.054687-7.648438 17.066406-17.066407v-34.136718c-.011719-9.417969-7.648438-17.050782-17.066406-17.066406h-34.132813c-9.421875.015624-17.054687 7.648437-17.066406 17.066406v34.136718c.011719 9.417969 7.644531 17.050782 17.066406 17.066407zm0-51.203125h34.132813l.015624 34.136718h-34.148437zm0 0"/><path d="m187.734375 375.464844h34.132813c9.417968-.011719 17.054687-7.644532 17.066406-17.066406v-34.132813c-.011719-9.417969-7.648438-17.054687-17.066406-17.066406h-34.132813c-9.421875.011719-17.054687 7.648437-17.066406 17.066406v34.132813c.011719 9.421874 7.644531 17.054687 17.066406 17.066406zm0-51.199219h34.132813l.015624 34.132813h-34.148437zm0 0"/><path d="m187.734375 452.265625h34.132813c9.417968-.011719 17.054687-7.644531 17.066406-17.066406v-34.132813c-.011719-9.421875-7.648438-17.054687-17.066406-17.066406h-34.132813c-9.421875.011719-17.054687 7.644531-17.066406 17.066406v34.132813c.011719 9.421875 7.644531 17.054687 17.066406 17.066406zm0-51.199219h34.132813l.015624 34.132813h-34.148437zm0 0"/></svg>